<svg width="32" height="32" viewBox="0 0 32 32" fill="none" xmlns="http://www.w3.org/2000/svg">
<path d="M26.7075 20.7075C26.6146 20.8005 26.5043 20.8742 26.3829 20.9246C26.2615 20.9749 26.1314 21.0008 26 21.0008C25.8686 21.0008 25.7385 20.9749 25.6171 20.9246C25.4957 20.8742 25.3854 20.8005 25.2925 20.7075L16 11.4138L6.70751 20.7075C6.51987 20.8951 6.26537 21.0006 6.00001 21.0006C5.73464 21.0006 5.48015 20.8951 5.29251 20.7075C5.10487 20.5199 4.99945 20.2654 4.99945 20C4.99945 19.7346 5.10487 19.4801 5.29251 19.2925L15.2925 9.2925C15.3854 9.19952 15.4957 9.12577 15.6171 9.07544C15.7385 9.02512 15.8686 8.99921 16 8.99921C16.1314 8.99921 16.2615 9.02512 16.3829 9.07544C16.5043 9.12577 16.6146 9.19952 16.7075 9.2925L26.7075 19.2925C26.8005 19.3854 26.8742 19.4957 26.9246 19.6171C26.9749 19.7385 27.0008 19.8686 27.0008 20C27.0008 20.1314 26.9749 20.2615 26.9246 20.3829C26.8742 20.5043 26.8005 20.6146 26.7075 20.7075Z" fill="#222222"/>
</svg>
