<svg width="30" height="30" viewBox="0 0 30 30" fill="none" xmlns="http://www.w3.org/2000/svg">
<g clip-path="url(#clip0_417_8)">
<circle cx="15" cy="15" r="15" fill="#F7F7F7"/>
<path d="M23.9375 14.3125H23.2208C23.0558 12.3698 22.2091 10.5481 20.8305 9.16948C19.4519 7.79086 17.6302 6.9442 15.6875 6.77922V6.0625C15.6875 5.88016 15.6151 5.7053 15.4861 5.57636C15.3572 5.44743 15.1823 5.375 15 5.375C14.8177 5.375 14.6428 5.44743 14.5139 5.57636C14.3849 5.7053 14.3125 5.88016 14.3125 6.0625V6.77922C12.3698 6.9442 10.5481 7.79086 9.16948 9.16948C7.79086 10.5481 6.9442 12.3698 6.77922 14.3125H6.0625C5.88016 14.3125 5.7053 14.3849 5.57636 14.5139C5.44743 14.6428 5.375 14.8177 5.375 15C5.375 15.1823 5.44743 15.3572 5.57636 15.4861C5.7053 15.6151 5.88016 15.6875 6.0625 15.6875H6.77922C6.9442 17.6302 7.79086 19.4519 9.16948 20.8305C10.5481 22.2091 12.3698 23.0558 14.3125 23.2208V23.9375C14.3125 24.1198 14.3849 24.2947 14.5139 24.4236C14.6428 24.5526 14.8177 24.625 15 24.625C15.1823 24.625 15.3572 24.5526 15.4861 24.4236C15.6151 24.2947 15.6875 24.1198 15.6875 23.9375V23.2208C17.6302 23.0558 19.4519 22.2091 20.8305 20.8305C22.2091 19.4519 23.0558 17.6302 23.2208 15.6875H23.9375C24.1198 15.6875 24.2947 15.6151 24.4236 15.4861C24.5526 15.3572 24.625 15.1823 24.625 15C24.625 14.8177 24.5526 14.6428 24.4236 14.5139C24.2947 14.3849 24.1198 14.3125 23.9375 14.3125ZM21.1875 15.6875H21.8406C21.6797 17.2646 20.9797 18.7378 19.8588 19.8588C18.7378 20.9797 17.2646 21.6797 15.6875 21.8406V21.1875C15.6875 21.0052 15.6151 20.8303 15.4861 20.7014C15.3572 20.5724 15.1823 20.5 15 20.5C14.8177 20.5 14.6428 20.5724 14.5139 20.7014C14.3849 20.8303 14.3125 21.0052 14.3125 21.1875V21.8406C12.7354 21.6797 11.2622 20.9797 10.1412 19.8588C9.02027 18.7378 8.32029 17.2646 8.15938 15.6875H8.8125C8.99484 15.6875 9.1697 15.6151 9.29864 15.4861C9.42757 15.3572 9.5 15.1823 9.5 15C9.5 14.8177 9.42757 14.6428 9.29864 14.5139C9.1697 14.3849 8.99484 14.3125 8.8125 14.3125H8.15938C8.32029 12.7354 9.02027 11.2622 10.1412 10.1412C11.2622 9.02027 12.7354 8.32029 14.3125 8.15938V8.8125C14.3125 8.99484 14.3849 9.1697 14.5139 9.29864C14.6428 9.42757 14.8177 9.5 15 9.5C15.1823 9.5 15.3572 9.42757 15.4861 9.29864C15.6151 9.1697 15.6875 8.99484 15.6875 8.8125V8.15938C17.2646 8.32029 18.7378 9.02027 19.8588 10.1412C20.9797 11.2622 21.6797 12.7354 21.8406 14.3125H21.1875C21.0052 14.3125 20.8303 14.3849 20.7014 14.5139C20.5724 14.6428 20.5 14.8177 20.5 15C20.5 15.1823 20.5724 15.3572 20.7014 15.4861C20.8303 15.6151 21.0052 15.6875 21.1875 15.6875ZM18.4375 15C18.4375 15.6799 18.2359 16.3445 17.8582 16.9098C17.4805 17.4751 16.9436 17.9157 16.3155 18.1758C15.6874 18.436 14.9962 18.5041 14.3294 18.3714C13.6626 18.2388 13.0501 17.9114 12.5693 17.4307C12.0886 16.9499 11.7612 16.3374 11.6286 15.6706C11.4959 15.0038 11.564 14.3126 11.8242 13.6845C12.0843 13.0564 12.5249 12.5195 13.0902 12.1418C13.6555 11.7641 14.3201 11.5625 15 11.5625C15.9117 11.5625 16.786 11.9247 17.4307 12.5693C18.0753 13.214 18.4375 14.0883 18.4375 15Z" fill="#222222"/>
</g>
<defs>
<clipPath id="clip0_417_8">
<rect width="30" height="30" fill="white"/>
</clipPath>
</defs>
</svg>
