<svg width="30" height="30" viewBox="0 0 30 30" fill="none" xmlns="http://www.w3.org/2000/svg">
<g clip-path="url(#clip0_417_8)">
<circle cx="15" cy="15" r="15" fill="#F7F7F7"/>
<g clip-path="url(#clip1_417_8)">
<path d="M15 11C12.79 11 11 12.79 11 15C11 17.21 12.79 19 15 19C17.21 19 19 17.21 19 15C19 12.79 17.21 11 15 11ZM23.94 14C23.48 9.83 20.17 6.52 16 6.06V5C16 4.45 15.55 4 15 4C14.45 4 14 4.45 14 5V6.06C9.83 6.52 6.52 9.83 6.06 14H5C4.45 14 4 14.45 4 15C4 15.55 4.45 16 5 16H6.06C6.52 20.17 9.83 23.48 14 23.94V25C14 25.55 14.45 26 15 26C15.55 26 16 25.55 16 25V23.94C20.17 23.48 23.48 20.17 23.94 16H25C25.55 16 26 15.55 26 15C26 14.45 25.55 14 25 14H23.94V14ZM15 22C11.13 22 8 18.87 8 15C8 11.13 11.13 8 15 8C18.87 8 22 11.13 22 15C22 18.87 18.87 22 15 22Z" fill="#222222"/>
</g>
</g>
<defs>
<clipPath id="clip0_417_8">
<rect width="30" height="30" fill="white"/>
</clipPath>
<clipPath id="clip1_417_8">
<rect width="24" height="24" fill="white" transform="translate(3 3)"/>
</clipPath>
</defs>
</svg>
